<?xml version="1.0" encoding="UTF-8"?>
<svg id="Layer_1" data-name="Layer 1" xmlns="http://www.w3.org/2000/svg" viewBox="0 0 401 401">
  <defs>
    <style>
      .cls-1 {
        fill: #d2cd28;
        stroke-width: 0px;
      }
    </style>
  </defs>
  <path class="cls-1" d="M182.6,384.27c-5.37-.85-10.83-1.31-16.08-2.62-13.83-3.46-22.42-15.83-20.49-29.94,2.04-14.92,4.68-29.75,7.09-44.62,4.31-26.57,8.76-53.12,12.93-79.71,2.23-14.25-3.88-26.52-16.36-33.99-10.48-6.27-13.2-12.6-10.44-24.4.92-3.93,1.79-7.86,2.85-11.75,1.59-5.84,5.02-10.45,10.8-12.38,22.84-7.61,46.23-9.57,69.83-4.67,14.04,2.91,22.64,15.86,20.75,30.09-1.75,13.16-4.07,26.25-6.2,39.36-4.59,28.21-9.26,56.4-13.79,84.62-2.28,14.18,3.74,26.7,16.1,34.11,10.81,6.48,13.49,12.81,10.6,24.98-.85,3.58-1.72,7.15-2.61,10.71-1.78,7.18-6.13,12.19-13.35,13.82-9.92,2.25-19.97,3.89-29.97,5.8-1.04.2-2.08.39-3.12.59h-18.52Z"/>
  <path class="cls-1" d="M223.21,19.5c1.58.43,3.16.9,4.75,1.29,22.98,5.65,37.94,28.04,34.24,51.26-3.74,23.45-24.69,40.23-48.12,38.53-23.94-1.73-42.45-21.44-42.58-45.33-.12-21.5,15.02-40.22,36.23-44.81,1.14-.25,2.25-.62,3.37-.94,4.04,0,8.07,0,12.11,0Z"/>
</svg>