<?xml version="1.0" encoding="UTF-8"?>
<svg id="Layer_1" data-name="Layer 1" xmlns="http://www.w3.org/2000/svg" viewBox="0 0 401 401">
  <defs>
    <style>
      .cls-1 {
        fill: #d3ce13;
        stroke-width: 0px;
      }
    </style>
  </defs>
  <path class="cls-1" d="M196.48,175.48c-13.72,12.32-23.39,27.01-27.87,44.93-3.44,13.77-4.62,27.81-4.46,41.98.01.96.48,1.91.71,2.75h67.9c.31-2.73.71-5,.81-7.28.82-19.38,8.72-35.25,23.22-48.07,8.05-7.11,16.08-14.29,23.56-21.99,7.31-7.53,14.92-15.1,20.64-23.8,21.34-32.51,19.78-66.26,1.79-99.3-11.61-21.32-31.72-32.7-54.65-38.86-26.27-7.06-52.91-7.29-79.55-2.37-42.15,7.79-70.27,35.38-78.12,76.52-1.36,7.12-1.62,14.44-2.43,22.14h81.81c.31-2.75.52-4.83.79-6.9,1.02-7.88,3.58-15.17,8.73-21.34,8.9-10.66,20.55-12.48,33.27-9.62,11.85,2.67,17.9,10.93,20.26,22.44,3.34,16.26.74,31.21-10.68,43.61-8.11,8.81-16.81,17.13-25.73,25.14Z"/>
  <path class="cls-1" d="M169.68,370.53c17.51,13.36,45.66,12.3,62.01-2.33,16.33-14.61,17.22-40.91,1.84-56.53-9.4-9.55-21.06-13.48-34.94-13.38-7.87-.08-16.02,1.56-23.58,5.73-25.74,14.19-28.52,48.82-5.34,66.51Z"/>
</svg>