<?xml version="1.0" encoding="UTF-8"?>
<svg id="Layer_1" data-name="Layer 1" xmlns="http://www.w3.org/2000/svg" viewBox="0 0 4069.16 4069.16">
  <defs>
    <style>
      .cls-1 {
        fill: #7456da;
        stroke-width: 0px;
      }

      .cls-2 {
        fill: none;
        stroke: #262262;
        stroke-linecap: round;
        stroke-linejoin: round;
        stroke-width: 109.97px;
      }
    </style>
  </defs>
  <path class="cls-1" d="M1095.14,1032.14c120.02,0,230.97,38.05,322.16,102.27,20.59-334.99,298.66-600.34,638.84-600.34,264.44,0,491.4,160.36,589.03,389.12,76.6-32.41,160.82-50.33,249.23-50.33,353.57,0,640.19,286.62,640.19,640.19s-286.62,640.19-640.19,640.19h-1799.25c-309.59,0-560.56-250.97-560.56-560.56s250.97-560.56,560.56-560.56Z"/>
  <line class="cls-2" x1="1030.72" y1="2614.66" x2="1030.72" y2="3164.48"/>
  <line class="cls-2" x1="1349.18" y1="2614.66" x2="1349.18" y2="3476.1"/>
  <line class="cls-2" x1="1701.96" y1="2614.66" x2="1701.96" y2="3164.48"/>
  <line class="cls-2" x1="2018.42" y1="2614.66" x2="2018.42" y2="3476.1"/>
  <line class="cls-2" x1="2370.2" y1="2614.66" x2="2370.2" y2="3164.48"/>
  <line class="cls-2" x1="2688.67" y1="2614.66" x2="2688.67" y2="3476.1"/>
  <line class="cls-2" x1="3041.45" y1="2614.66" x2="3041.45" y2="3164.48"/>
</svg>